<svg width="128" height="128" viewBox="0 0 128 128" fill="none" xmlns="http://www.w3.org/2000/svg">
<path d="M63.8 115C42.168 115 37.56 97.976 35 88.888V88.376C34.744 87.48 35.256 86.584 36.024 86.328L51.384 80.184C51.896 79.928 52.408 80.056 52.92 80.184C53.432 80.44 53.816 80.952 53.944 81.464C55.096 87.096 56.504 92.216 61.368 93.624C63.8 94.392 66.232 94.008 68.024 92.6C70.072 91.064 71.096 88.632 71.096 85.816C71.096 80.568 68.024 78.264 64.696 76.6C63.672 76.216 63.416 75.064 63.8 74.168C64.184 73.272 65.336 73.016 66.232 73.4C70.328 75.32 74.808 78.52 74.808 85.816C74.808 89.912 73.016 93.496 70.2 95.544C67.384 97.72 63.928 98.232 60.344 97.208C53.944 95.416 51.896 89.144 50.744 84.408L39.096 89.144C41.528 97.976 45.88 111.416 63.8 111.416C69.048 111.416 73.912 110.392 77.496 108.728C85.048 105.016 89.912 96.056 89.656 86.456C89.272 77.88 84.792 70.968 77.752 68.152C73.912 66.616 69.816 65.592 65.592 64.696C53.432 62.008 40.888 59.192 38.072 43.832C36.28 33.72 40.12 26.68 43.448 22.584C48.696 16.312 56.76 12.6 65.208 12.6C78.52 12.6 87.992 20.792 92.088 35.64C92.344 36.536 91.832 37.432 91.064 37.816L76.728 44.6C76.216 44.856 75.704 44.856 75.192 44.6C74.68 44.344 74.296 43.832 74.168 43.32C73.4 39.736 71.864 35.512 68.28 34.104C65.08 32.696 61.624 34.232 60.088 37.56C58.168 41.272 59.32 45.496 63.16 48.184C63.928 48.824 64.184 49.976 63.672 50.744C63.032 51.512 61.752 51.768 60.984 51.128C55.608 47.416 53.944 41.272 56.632 35.896C59.064 30.776 64.696 28.6 69.816 30.648C74.04 32.44 75.96 36.408 77.112 40.248L88.12 35.128C85.304 26.296 79.16 16.312 65.208 16.312C57.912 16.312 50.872 19.512 46.264 24.888C43.448 28.472 40.12 34.488 41.784 43.192C44.216 56.12 54.968 58.552 66.36 61.112C70.712 62.008 75.192 63.032 79.16 64.696C87.736 68.024 92.984 76.088 93.368 86.328C93.752 97.464 87.992 107.832 79.032 112.056C73.784 114.616 67.256 115 63.8 115Z" fill="#007E6D"/>
</svg>
